<?xml version="1.0" standalone="no"?>
<!DOCTYPE svg PUBLIC "-//W3C//DTD SVG 20010904//EN"
 "http://www.w3.org/TR/2001/REC-SVG-20010904/DTD/svg10.dtd">
<svg version="1.0" xmlns="http://www.w3.org/2000/svg"
 width="16.000000pt" height="16.000000pt" viewBox="0 0 16.000000 16.000000"
 preserveAspectRatio="xMidYMid meet">
<metadata>
Created by potrace 1.11, written by Peter Selinger 2001-2013
</metadata>
<g transform="translate(0.000000,16.000000) scale(0.002667,-0.002667)"
fill="#000000" stroke="none">
<path d="M1000 3020 l0 -1600 970 0 970 0 0 175 0 175 -755 0 -755 0 0 1425 0
1425 -215 0 -215 0 0 -1600z"/>
<path d="M4010 3825 c-104 -17 -222 -57 -315 -109 -91 -51 -239 -198 -281
-281 -58 -112 -69 -158 -68 -295 0 -133 16 -195 70 -282 112 -177 349 -297
799 -402 338 -79 422 -124 495 -266 31 -61 39 -179 16 -235 -41 -97 -119 -166
-231 -205 -94 -32 -242 -45 -351 -31 -142 19 -281 74 -358 142 -46 40 -94 139
-109 223 l-11 66 -204 0 -205 0 7 -69 c11 -126 79 -276 179 -394 106 -127 269
-225 453 -273 135 -35 406 -45 564 -20 408 65 671 314 687 651 9 179 -34 308
-140 422 -129 138 -311 221 -707 323 -310 80 -402 116 -471 184 -56 55 -74 99
-74 186 0 88 25 148 89 218 82 89 187 124 371 125 182 1 293 -40 388 -143 60
-65 93 -126 109 -204 l12 -56 203 0 203 0 -6 58 c-26 243 -156 437 -380 568
-65 38 -208 84 -314 100 -116 17 -306 17 -420 -1z"/>
</g>
</svg>
